<svg width="32" height="32" viewBox="0 0 32 32" fill="none" xmlns="http://www.w3.org/2000/svg">
  <!-- Background Circle -->
  <circle cx="16" cy="16" r="14" fill="url(#gradient1)" stroke="url(#gradient2)" stroke-width="2"/>
  
  <!-- Mountain/Travel Icon -->
  <path d="M6 20L9 14L12 17L16 10L20 15L24 18L26 20H6Z" fill="white" opacity="0.9"/>
  
  <!-- Airplane Trail -->
  <path d="M21 11L24 8" stroke="white" stroke-width="1.2" stroke-linecap="round"/>
  <circle cx="24" cy="8" r="0.8" fill="white"/>
  
  <!-- Location Pin -->
  <path d="M11 21C11 20.4477 11.4477 20 12 20C12.5523 20 13 20.4477 13 21C13 21.5523 12.5523 22 12 22C11.4477 22 11 21.5523 11 21Z" fill="#0D9488"/>
  <path d="M12 18.5C11.7239 18.5 11.5 18.7239 11.5 19V20.5C11.5 20.7761 11.7239 21 12 21C12.2761 21 12.5 20.7761 12.5 20.5V19C12.5 18.7239 12.2761 18.5 12 18.5Z" fill="#0D9488"/>
  
  <!-- Gradients -->
  <defs>
    <linearGradient id="gradient1" x1="0%" y1="0%" x2="100%" y2="100%">
      <stop offset="0%" style="stop-color:#0D9488;stop-opacity:1" />
      <stop offset="50%" style="stop-color:#14B8A6;stop-opacity:1" />
      <stop offset="100%" style="stop-color:#5EEAD4;stop-opacity:1" />
    </linearGradient>
    <linearGradient id="gradient2" x1="0%" y1="0%" x2="100%" y2="100%">
      <stop offset="0%" style="stop-color:#0F766E;stop-opacity:1" />
      <stop offset="100%" style="stop-color:#0D9488;stop-opacity:1" />
    </linearGradient>
  </defs>
</svg>
