<svg width="120" height="40" viewBox="0 0 120 40" fill="none" xmlns="http://www.w3.org/2000/svg">
  <!-- Background Circle -->
  <circle cx="20" cy="20" r="18" fill="url(#gradient1)" stroke="url(#gradient2)" stroke-width="2"/>
  
  <!-- Mountain/Travel Icon -->
  <path d="M8 24L12 16L16 20L20 12L24 18L28 22L32 24H8Z" fill="white" opacity="0.9"/>
  
  <!-- Airplane Trail -->
  <path d="M26 14L30 10" stroke="white" stroke-width="1.5" stroke-linecap="round"/>
  <circle cx="30" cy="10" r="1" fill="white"/>
  
  <!-- Location Pin -->
  <path d="M14 26C14 24.8954 14.8954 24 16 24C17.1046 24 18 24.8954 18 26C18 27.1046 17.1046 28 16 28C14.8954 28 14 27.1046 14 26Z" fill="#0D9488"/>
  <path d="M16 22C15.4477 22 15 22.4477 15 23V25C15 25.5523 15.4477 26 16 26C16.5523 26 17 25.5523 17 25V23C17 22.4477 16.5523 22 16 22Z" fill="#0D9488"/>
  
  <!-- Text -->
  <text x="44" y="16" font-family="Inter, system-ui, sans-serif" font-size="14" font-weight="700" fill="#1F2937">Tour</text>
  <text x="44" y="30" font-family="Inter, system-ui, sans-serif" font-size="14" font-weight="700" fill="#0D9488">Mates</text>
  
  <!-- Decorative Elements -->
  <circle cx="100" cy="12" r="2" fill="#0D9488" opacity="0.6"/>
  <circle cx="108" cy="18" r="1.5" fill="#14B8A6" opacity="0.4"/>
  <circle cx="104" cy="28" r="1" fill="#5EEAD4" opacity="0.8"/>
  
  <!-- Gradients -->
  <defs>
    <linearGradient id="gradient1" x1="0%" y1="0%" x2="100%" y2="100%">
      <stop offset="0%" style="stop-color:#0D9488;stop-opacity:1" />
      <stop offset="50%" style="stop-color:#14B8A6;stop-opacity:1" />
      <stop offset="100%" style="stop-color:#5EEAD4;stop-opacity:1" />
    </linearGradient>
    <linearGradient id="gradient2" x1="0%" y1="0%" x2="100%" y2="100%">
      <stop offset="0%" style="stop-color:#0F766E;stop-opacity:1" />
      <stop offset="100%" style="stop-color:#0D9488;stop-opacity:1" />
    </linearGradient>
  </defs>
</svg>
